<svg width="203" height="48" viewBox="0 0 203 48" fill="none" xmlns="http://www.w3.org/2000/svg">
<path fill-rule="evenodd" clip-rule="evenodd" d="M184.401 34C186.277 34 188.032 33.4836 189.532 32.5853C190.095 32.2478 190.774 32.1242 191.397 32.3319L197.485 34.3613C198.133 34.5772 198.377 35.3646 197.926 35.8775C194.628 39.631 189.791 42 184.401 42C174.46 42 166.401 33.9411 166.401 24C166.401 14.0589 174.46 6 184.401 6C194.342 6 202.401 14.0589 202.401 24C202.401 24.8237 202.346 25.6345 202.239 26.4289C202.114 27.3546 201.292 28 200.358 28H175.233C176.776 31.5318 180.3 34 184.401 34ZM184.401 14C180.3 14 176.776 16.4682 175.233 20H193.569C192.026 16.4682 188.502 14 184.401 14Z" fill="#242424"/>
<path d="M163.034 8.21088C163.85 8.48311 164.401 9.24738 164.401 10.1082V40.0001C164.401 41.1046 163.506 42.0001 162.401 42.0001H158.401C157.297 42.0001 156.401 41.1046 156.401 40.0001V7.38749C156.401 6.70493 157.07 6.22296 157.717 6.4388L163.034 8.21088Z" fill="#242424"/>
<path d="M60 8C60 6.89543 60.8954 6 62 6H66C67.1046 6 68 6.89543 68 8V14C68 9.58172 75.5817 6 80 6H82C83.1046 6 84 6.89543 84 8V12C84 13.1046 83.1001 13.9869 82.004 14.1233C74.1094 15.1057 68 21.8394 68 30V40C68 41.1046 67.1046 42 66 42H62C60.8954 42 60 41.1046 60 40V8Z" fill="#242424"/>
<path d="M146.996 32.3319C146.373 32.1242 145.694 32.2478 145.131 32.5853C143.631 33.4836 141.876 34 140 34C134.477 34 130 29.5228 130 24C130 18.4772 134.477 14 140 14C141.876 14 143.631 14.5164 145.131 15.4147C145.694 15.7522 146.373 15.8758 146.996 15.6681L153.084 13.6387C153.732 13.4228 153.976 12.6354 153.525 12.1225C150.226 8.36897 145.39 6 140 6C130.059 6 122 14.0589 122 24C122 33.9411 130.059 42 140 42C145.39 42 150.226 39.631 153.525 35.8775C153.976 35.3646 153.732 34.5772 153.084 34.3613L146.996 32.3319Z" fill="#242424"/>
<path fill-rule="evenodd" clip-rule="evenodd" d="M108.996 32.3319C108.373 32.1242 107.694 32.2478 107.131 32.5853C105.631 33.4836 103.876 34 102 34C97.8994 34 94.3752 31.5318 92.8321 28H117.957C118.891 28 119.713 27.3546 119.838 26.4289C119.945 25.6345 120 24.8237 120 24C120 14.0589 111.941 6 102 6C92.0589 6 84 14.0589 84 24C84 33.9411 92.0589 42 102 42C107.39 42 112.226 39.631 115.525 35.8775C115.976 35.3646 115.732 34.5772 115.084 34.3613L108.996 32.3319ZM92.8321 20C94.3752 16.4682 97.8994 14 102 14C106.101 14 109.625 16.4682 111.168 20H92.8321Z" fill="#242424"/>
<path d="M28 28H36C39.1826 28 42.2348 29.2643 44.4853 31.5147C46.7357 33.7652 48 36.8174 48 40V48H40C36.8174 48 33.7652 46.7357 31.5147 44.4853C29.2643 42.2348 28 39.1826 28 36V28Z" fill="#008C15"/>
<path d="M27.5147 3.51472C25.2643 5.76516 24 8.8174 24 12V20H36C39.1826 20 42.2348 18.7357 44.4853 16.4853C46.7357 14.2348 48 11.1826 48 8V0H36C32.8174 0 29.7652 1.26428 27.5147 3.51472Z" fill="#008C15"/>
<path d="M24 0H12C8.8174 0 5.76516 1.26428 3.51472 3.51472C1.26428 5.76516 0 8.8174 0 12L0 48H12C15.1826 48 18.2348 46.7357 20.4853 44.4853C22.7357 42.2348 24 39.1826 24 36V12C24 8.8174 25.2643 5.76516 27.5147 3.51472C29.7652 1.26428 32.8174 0 36 0L24 0Z" fill="#5BC500"/>
</svg>
